<svg width="25" height="24" viewBox="0 0 25 24" fill="none" xmlns="http://www.w3.org/2000/svg">
<path d="M12.5 0.799805L12.8354 0.128985C12.6243 0.0234114 12.3757 0.0234114 12.1646 0.128985L12.5 0.799805ZM7.7 13.5998V12.8498H6.95V13.5998H7.7ZM14.1 13.5998H14.85V12.8498H14.1V13.5998ZM0.5 23.9498H24.5V22.4498H0.5V23.9498ZM12.1646 0.128985L2.56459 4.92899L3.23541 6.27063L12.8354 1.47062L12.1646 0.128985ZM0.5 9.54982H24.5V8.04981H0.5V9.54982ZM22.4354 4.92899L12.8354 0.128985L12.1646 1.47062L21.7646 6.27063L22.4354 4.92899ZM2.15 8.79982V23.1998H3.65V8.79982H2.15ZM21.35 8.79982V23.1998H22.85V8.79982H21.35ZM8.45 23.1998V13.5998H6.95V23.1998H8.45ZM7.7 14.3498H14.1V12.8498H7.7V14.3498ZM13.35 13.5998V23.1998H14.85V13.5998H13.35Z" fill="#0D1311"/>
</svg>
