<svg width="20" height="21" viewBox="0 0 20 21" fill="none" xmlns="http://www.w3.org/2000/svg">
<path d="M9.99984 3.83268C6.31794 3.83268 3.33317 6.81745 3.33317 10.4993C3.33317 14.1812 6.31794 17.166 9.99984 17.166C13.6817 17.166 16.6665 14.1812 16.6665 10.4993C16.6665 6.81745 13.6817 3.83268 9.99984 3.83268ZM1.6665 10.4993C1.6665 5.89698 5.39746 2.16602 9.99984 2.16602C14.6022 2.16602 18.3332 5.89698 18.3332 10.4993C18.3332 15.1017 14.6022 18.8327 9.99984 18.8327C5.39746 18.8327 1.6665 15.1017 1.6665 10.4993Z" fill="#0AABB9"/>
<path d="M9.99972 2.16602C5.40376 2.16602 1.6665 5.90327 1.6665 10.4992C1.6665 15.0952 5.40376 18.8327 9.99972 18.8327C14.5959 18.8327 18.3332 15.0954 18.3332 10.4992C18.3332 5.90304 14.5959 2.16602 9.99972 2.16602ZM9.46788 3.51243V9.96751H6.29301C6.43727 7.2464 7.66938 4.79486 9.46788 3.51243ZM10.5316 3.51243C12.3301 4.79486 13.5622 7.24616 13.7065 9.96751H10.5316V3.51243ZM7.78895 3.57337C6.27326 5.1632 5.34562 7.47627 5.22901 9.96746H2.75214C2.97053 6.95354 5.01382 4.4546 7.78871 3.57337H7.78895ZM12.2106 3.57337C14.9854 4.45465 17.0287 6.95354 17.2472 9.96746H14.7705C14.6539 7.47627 13.7264 5.16316 12.2106 3.57337ZM2.75237 11.0312H5.22925C5.34509 13.5283 6.27312 15.8468 7.79458 17.4363C5.01457 16.5564 2.96892 14.0498 2.75237 11.0312ZM6.29301 11.0312H9.46788V17.4807C7.66901 16.1976 6.4359 13.753 6.29301 11.0312ZM10.5316 11.0312H13.7065C13.5635 13.7533 12.3305 16.1975 10.5316 17.4807V11.0312ZM14.7703 11.0312H17.2469C17.0305 14.0501 14.9849 16.5565 12.2047 17.4363C13.7263 15.8467 14.6542 13.5283 14.7701 11.0312H14.7703Z" fill="#0AABB9"/>
</svg>
