<svg width="20" height="20" viewBox="0 0 20 20" fill="none" xmlns="http://www.w3.org/2000/svg">
<path d="M10 3.33268C6.31812 3.33268 3.33335 6.31745 3.33335 9.99935C3.33335 13.6812 6.31812 16.666 10 16.666C13.6819 16.666 16.6667 13.6812 16.6667 9.99935C16.6667 6.31745 13.6819 3.33268 10 3.33268ZM1.66669 9.99935C1.66669 5.39698 5.39765 1.66602 10 1.66602C14.6024 1.66602 18.3334 5.39698 18.3334 9.99935C18.3334 14.6017 14.6024 18.3327 10 18.3327C5.39765 18.3327 1.66669 14.6017 1.66669 9.99935Z" fill="#0D1311"/>
<path d="M9.9999 1.66602C5.40394 1.66602 1.66669 5.40327 1.66669 9.99923C1.66669 14.5952 5.40394 18.3327 9.9999 18.3327C14.5961 18.3327 18.3334 14.5954 18.3334 9.99923C18.3334 5.40304 14.5961 1.66602 9.9999 1.66602ZM9.46807 3.01243V9.46751H6.2932C6.43745 6.7464 7.66957 4.29486 9.46807 3.01243ZM10.5318 3.01243C12.3303 4.29486 13.5624 6.74616 13.7067 9.46751H10.5318V3.01243ZM7.78913 3.07337C6.27344 4.6632 5.3458 6.97627 5.2292 9.46746H2.75232C2.97072 6.45354 5.014 3.9546 7.7889 3.07337H7.78913ZM12.2108 3.07337C14.9856 3.95465 17.0289 6.45354 17.2473 9.46746H14.7707C14.654 6.97627 13.7266 4.66316 12.2108 3.07337ZM2.75255 10.5312H5.22943C5.34527 13.0283 6.2733 15.3468 7.79476 16.9363C5.01475 16.0564 2.96911 13.5498 2.75255 10.5312ZM6.2932 10.5312H9.46807V16.9807C7.66919 15.6976 6.43608 13.253 6.2932 10.5312ZM10.5318 10.5312H13.7067C13.5637 13.2533 12.3307 15.6975 10.5318 16.9807V10.5312ZM14.7705 10.5312H17.2471C17.0307 13.5501 14.9851 16.0565 12.2049 16.9363C13.7265 15.3467 14.6543 13.0283 14.7702 10.5312H14.7705Z" fill="#0D1311"/>
</svg>
