<svg width="14" height="15" viewBox="0 0 14 15" fill="none" xmlns="http://www.w3.org/2000/svg">
<path d="M13 0.0625C13.5312 0.0625 14 0.53125 14 1.09375V13.0625C14 13.625 13.5312 14.0625 13 14.0625H0.96875C0.4375 14.0625 0 13.625 0 13.0625V1.09375C0 0.53125 0.4375 0.0625 0.96875 0.0625H13ZM4.21875 12.0625V5.40625H2.15625V12.0625H4.21875ZM3.1875 4.46875C3.84375 4.46875 4.375 3.9375 4.375 3.28125C4.375 2.625 3.84375 2.0625 3.1875 2.0625C2.5 2.0625 1.96875 2.625 1.96875 3.28125C1.96875 3.9375 2.5 4.46875 3.1875 4.46875ZM12 12.0625V8.40625C12 6.625 11.5938 5.21875 9.5 5.21875C8.5 5.21875 7.8125 5.78125 7.53125 6.3125H7.5V5.40625H5.53125V12.0625H7.59375V8.78125C7.59375 7.90625 7.75 7.0625 8.84375 7.0625C9.90625 7.0625 9.90625 8.0625 9.90625 8.8125V12.0625H12Z" fill="#ffffff"/>
</svg>
