<svg width="32" height="33" viewBox="0 0 32 33" fill="none" xmlns="http://www.w3.org/2000/svg">
<rect y="0.609863" width="32" height="32" rx="16" fill="#B9B4A0" fill-opacity="0.5"/>
<path fill-rule="evenodd" clip-rule="evenodd" d="M18.4 13.4082C18.4 14.7329 17.3256 15.8066 16 15.8066C14.6744 15.8066 13.6 14.7329 13.6 13.4082C13.6 12.0835 14.6744 11.0098 16 11.0098C17.3256 11.0098 18.4 12.0835 18.4 13.4082Z" stroke="#241A3C" stroke-width="1.5" stroke-linecap="square"/>
<path fill-rule="evenodd" clip-rule="evenodd" d="M20 22.2025H12C12 21.6344 12 21.094 12 20.6047C12 19.2792 13.0745 18.2051 14.4 18.2051H17.6C18.9255 18.2051 20 19.2792 20 20.6047C20 21.094 20 21.6344 20 22.2025Z" stroke="#241A3C" stroke-width="1.5" stroke-linecap="square"/>
</svg>
