<svg width="18" height="17" viewBox="0 0 18 17" fill="none" xmlns="http://www.w3.org/2000/svg">
<path d="M5.79792 8.50011L10.0646 8.50011M12.7313 4.76678L10.0646 8.49523L12.7313 12.2334M16.4646 3.16539C16.4646 4.34222 15.5089 5.29733 14.3313 5.29733C13.1537 5.29733 12.1979 4.34222 12.1979 3.16539C12.1979 1.98856 13.1537 1.03345 14.3313 1.03345C15.5089 1.03345 16.4646 1.98856 16.4646 3.16539ZM16.4646 13.8251C16.4646 15.0019 15.5089 15.957 14.3313 15.957C13.1537 15.957 12.1979 15.0019 12.1979 13.8251C12.1979 12.6483 13.1537 11.6931 14.3313 11.6931C15.5089 11.6931 16.4646 12.6483 16.4646 13.8251ZM5.79792 8.49524C5.79792 9.67207 4.84218 10.6272 3.66458 10.6272C2.48698 10.6272 1.53125 9.67207 1.53125 8.49524C1.53125 7.31841 2.48698 6.3633 3.66458 6.3633C4.84218 6.3633 5.79792 7.31841 5.79792 8.49524Z" stroke="white" stroke-width="1.5" stroke-linecap="square"/>
</svg>
